<svg xmlns="http://www.w3.org/2000/svg" xmlns:xlink="http://www.w3.org/1999/xlink" xmlns:lucid="lucid" width="3081" height="2185"><g transform="translate(1460.5 597)" lucid:page-tab-id="0_0"><path d="M-1500-1000h3500v3000h-3500z" fill="#fff"/><path d="M-1440-360h780.34v866H-1440z" fill="#fff"/><path d="M-1440-262v49h780.34v-49M-1440-166v49h780.34v-49M-1440-70v49h780.34v-49M-1440 26v49h780.34V26M-1440 122v49h780.34v-49M-1440 218v49h780.34v-49M-1440 314v49h780.34v-49M-1440 410v49h780.34v-49" fill="#e6e6e6"/><path d="M-1440-310v-50h780.34v50" fill="#1071e5"/><path d="M-1440-360h780.34v866H-1440zM-1440-310h780.34M-1049.83-310v816" stroke="#333" fill="none"/><use xlink:href="#a" transform="matrix(1,0,0,1,-1430,-360.00000000000006) translate(333.9416666666667 31.71111111111111)"/><use xlink:href="#b" transform="matrix(1,0,0,1,-1435,-307.50000000000006) translate(0 27.766666666666666)"/><use xlink:href="#c" transform="matrix(1,0,0,1,-1044.832158122779,-307.50000000000006) translate(0 26.433333333333334)"/><use xlink:href="#d" transform="matrix(1,0,0,1,-1435,-259.50000000000006) translate(0 27.766666666666666)"/><use xlink:href="#e" transform="matrix(1,0,0,1,-1044.832158122779,-259.50000000000006) translate(0 26.433333333333334)"/><use xlink:href="#f" transform="matrix(1,0,0,1,-1435,-211.50000000000006) translate(0 27.766666666666666)"/><use xlink:href="#e" transform="matrix(1,0,0,1,-1044.832158122779,-211.50000000000006) translate(0 26.433333333333334)"/><use xlink:href="#g" transform="matrix(1,0,0,1,-1435,-163.50000000000006) translate(0 27.766666666666666)"/><use xlink:href="#h" transform="matrix(1,0,0,1,-1435,-163.50000000000006) translate(67.88888888888887 27.766666666666666)"/><use xlink:href="#e" transform="matrix(1,0,0,1,-1044.832158122779,-163.50000000000006) translate(0 26.433333333333334)"/><use xlink:href="#i" transform="matrix(1,0,0,1,-1435,-115.50000000000006) translate(0 27.766666666666666)"/><use xlink:href="#e" transform="matrix(1,0,0,1,-1044.832158122779,-115.50000000000006) translate(0 26.433333333333334)"/><use xlink:href="#j" transform="matrix(1,0,0,1,-1435,-67.50000000000006) translate(0 27.766666666666666)"/><use xlink:href="#k" transform="matrix(1,0,0,1,-1435,-67.50000000000006) translate(74.76481481481478 27.766666666666666)"/><use xlink:href="#l" transform="matrix(1,0,0,1,-1435,-67.50000000000006) translate(116.54259259259254 27.766666666666666)"/><use xlink:href="#e" transform="matrix(1,0,0,1,-1044.832158122779,-67.50000000000006) translate(0 26.433333333333334)"/><use xlink:href="#m" transform="matrix(1,0,0,1,-1435,-19.500000000000057) translate(0 27.766666666666666)"/><use xlink:href="#n" transform="matrix(1,0,0,1,-1435,-19.500000000000057) translate(99.22222222222219 27.766666666666666)"/><use xlink:href="#o" transform="matrix(1,0,0,1,-1044.832158122779,-19.500000000000057) translate(0 26.433333333333334)"/><use xlink:href="#p" transform="matrix(1,0,0,1,-1435,28.499999999999943) translate(0 27.766666666666666)"/><use xlink:href="#e" transform="matrix(1,0,0,1,-1044.832158122779,28.499999999999943) translate(0 26.433333333333334)"/><use xlink:href="#q" transform="matrix(1,0,0,1,-1435,76.49999999999994) translate(0 27.766666666666666)"/><use xlink:href="#e" transform="matrix(1,0,0,1,-1044.832158122779,76.49999999999994) translate(0 26.433333333333334)"/><use xlink:href="#r" transform="matrix(1,0,0,1,-1435,124.49999999999994) translate(0 27.766666666666666)"/><use xlink:href="#e" transform="matrix(1,0,0,1,-1044.832158122779,124.49999999999994) translate(0 26.433333333333334)"/><use xlink:href="#s" transform="matrix(1,0,0,1,-1435,172.49999999999994) translate(0 27.766666666666666)"/><use xlink:href="#t" transform="matrix(1,0,0,1,-1435,172.49999999999994) translate(74.67777777777775 27.766666666666666)"/><use xlink:href="#e" transform="matrix(1,0,0,1,-1044.832158122779,172.49999999999994) translate(0 26.433333333333334)"/><use xlink:href="#u" transform="matrix(1,0,0,1,-1435,220.49999999999994) translate(0 27.766666666666666)"/><use xlink:href="#v" transform="matrix(1,0,0,1,-1435,220.49999999999994) translate(99.22222222222219 27.766666666666666)"/><use xlink:href="#w" transform="matrix(1,0,0,1,-1435,220.49999999999994) translate(144.48148148148144 27.766666666666666)"/><use xlink:href="#e" transform="matrix(1,0,0,1,-1044.832158122779,220.49999999999994) translate(0 26.433333333333334)"/><use xlink:href="#u" transform="matrix(1,0,0,1,-1435,268.49999999999994) translate(0 27.766666666666666)"/><use xlink:href="#x" transform="matrix(1,0,0,1,-1435,268.49999999999994) translate(99.22222222222219 27.766666666666666)"/><use xlink:href="#e" transform="matrix(1,0,0,1,-1044.832158122779,268.49999999999994) translate(0 26.433333333333334)"/><use xlink:href="#u" transform="matrix(1,0,0,1,-1435,316.49999999999994) translate(0 27.766666666666666)"/><use xlink:href="#y" transform="matrix(1,0,0,1,-1435,316.49999999999994) translate(99.22222222222219 27.766666666666666)"/><use xlink:href="#e" transform="matrix(1,0,0,1,-1044.832158122779,316.49999999999994) translate(0 26.433333333333334)"/><use xlink:href="#z" transform="matrix(1,0,0,1,-1435,364.49999999999994) translate(0 27.766666666666666)"/><use xlink:href="#v" transform="matrix(1,0,0,1,-1435,364.49999999999994) translate(126.987037037037 27.766666666666666)"/><use xlink:href="#w" transform="matrix(1,0,0,1,-1435,364.49999999999994) translate(172.24629629629624 27.766666666666666)"/><use xlink:href="#e" transform="matrix(1,0,0,1,-1044.832158122779,364.49999999999994) translate(0 26.433333333333334)"/><use xlink:href="#A" transform="matrix(1,0,0,1,-1435,412.49999999999994) translate(0 27.766666666666666)"/><use xlink:href="#B" transform="matrix(1,0,0,1,-1435,412.49999999999994) translate(85.29629629629625 27.766666666666666)"/><use xlink:href="#x" transform="matrix(1,0,0,1,-1435,412.49999999999994) translate(194.87592592592586 27.766666666666666)"/><use xlink:href="#e" transform="matrix(1,0,0,1,-1044.832158122779,412.49999999999994) translate(0 26.433333333333334)"/><use xlink:href="#g" transform="matrix(1,0,0,1,-1435,460.49999999999994) translate(0 27.766666666666666)"/><use xlink:href="#B" transform="matrix(1,0,0,1,-1435,460.49999999999994) translate(67.88888888888887 27.766666666666666)"/><use xlink:href="#y" transform="matrix(1,0,0,1,-1435,460.49999999999994) translate(177.46851851851847 27.766666666666666)"/><use xlink:href="#e" transform="matrix(1,0,0,1,-1044.832158122779,460.49999999999994) translate(0 26.433333333333334)"/><path d="M-180-360h760v770h-760z" fill="#fff"/><path d="M-180-262v49h760v-49M-180-166v49h760v-49M-180-70v49h760v-49M-180 26v49h760V26M-180 122v49h760v-49M-180 218v49h760v-49M-180 314v49h760v-49" fill="#e6e6e6"/><path d="M-180-310v-50h760v50" fill="#1071e5"/><path d="M-180-360h760v770h-760zM-180-310h760M200-310v720" stroke="#333" fill="none"/><use xlink:href="#C" transform="matrix(1,0,0,1,-170,-360) translate(286.6237654320988 31.71111111111111)"/><use xlink:href="#b" transform="matrix(1,0,0,1,-175,-307.5) translate(0 27.766666666666666)"/><use xlink:href="#c" transform="matrix(1,0,0,1,205,-307.5) translate(0 26.433333333333334)"/><use xlink:href="#D" transform="matrix(1,0,0,1,-175,-259.5) translate(0 27.766666666666666)"/><use xlink:href="#e" transform="matrix(1,0,0,1,205,-259.5) translate(0 26.433333333333334)"/><use xlink:href="#f" transform="matrix(1,0,0,1,-175,-211.5) translate(0 27.766666666666666)"/><use xlink:href="#e" transform="matrix(1,0,0,1,205,-211.5) translate(0 26.433333333333334)"/><use xlink:href="#g" transform="matrix(1,0,0,1,-175,-163.5) translate(0 27.766666666666666)"/><use xlink:href="#h" transform="matrix(1,0,0,1,-175,-163.5) translate(67.88888888888887 27.766666666666666)"/><use xlink:href="#e" transform="matrix(1,0,0,1,205,-163.5) translate(0 26.433333333333334)"/><use xlink:href="#i" transform="matrix(1,0,0,1,-175,-115.5) translate(0 27.766666666666666)"/><use xlink:href="#e" transform="matrix(1,0,0,1,205,-115.5) translate(0 26.433333333333334)"/><use xlink:href="#j" transform="matrix(1,0,0,1,-175,-67.5) translate(0 27.766666666666666)"/><use xlink:href="#k" transform="matrix(1,0,0,1,-175,-67.5) translate(74.76481481481478 27.766666666666666)"/><use xlink:href="#l" transform="matrix(1,0,0,1,-175,-67.5) translate(116.54259259259254 27.766666666666666)"/><use xlink:href="#e" transform="matrix(1,0,0,1,205,-67.5) translate(0 26.433333333333334)"/><use xlink:href="#m" transform="matrix(1,0,0,1,-175,-19.5) translate(0 27.766666666666666)"/><use xlink:href="#n" transform="matrix(1,0,0,1,-175,-19.5) translate(99.22222222222219 27.766666666666666)"/><use xlink:href="#o" transform="matrix(1,0,0,1,205,-19.5) translate(0 26.433333333333334)"/><use xlink:href="#p" transform="matrix(1,0,0,1,-175,28.5) translate(0 27.766666666666666)"/><use xlink:href="#e" transform="matrix(1,0,0,1,205,28.5) translate(0 26.433333333333334)"/><use xlink:href="#E" transform="matrix(1,0,0,1,-175,76.5) translate(0 27.766666666666666)"/><use xlink:href="#F" transform="matrix(1,0,0,1,-175,76.5) translate(100.78888888888886 27.766666666666666)"/><use xlink:href="#e" transform="matrix(1,0,0,1,205,76.5) translate(0 26.433333333333334)"/><use xlink:href="#u" transform="matrix(1,0,0,1,-175,124.5) translate(0 27.766666666666666)"/><use xlink:href="#v" transform="matrix(1,0,0,1,-175,124.5) translate(99.22222222222219 27.766666666666666)"/><use xlink:href="#w" transform="matrix(1,0,0,1,-175,124.5) translate(144.48148148148144 27.766666666666666)"/><use xlink:href="#e" transform="matrix(1,0,0,1,205,124.5) translate(0 26.433333333333334)"/><use xlink:href="#u" transform="matrix(1,0,0,1,-175,172.5) translate(0 27.766666666666666)"/><use xlink:href="#x" transform="matrix(1,0,0,1,-175,172.5) translate(99.22222222222219 27.766666666666666)"/><use xlink:href="#e" transform="matrix(1,0,0,1,205,172.5) translate(0 26.433333333333334)"/><use xlink:href="#u" transform="matrix(1,0,0,1,-175,220.5) translate(0 27.766666666666666)"/><use xlink:href="#y" transform="matrix(1,0,0,1,-175,220.5) translate(99.22222222222219 27.766666666666666)"/><use xlink:href="#e" transform="matrix(1,0,0,1,205,220.5) translate(0 26.433333333333334)"/><use xlink:href="#z" transform="matrix(1,0,0,1,-175,268.5) translate(0 27.766666666666666)"/><use xlink:href="#v" transform="matrix(1,0,0,1,-175,268.5) translate(126.987037037037 27.766666666666666)"/><use xlink:href="#w" transform="matrix(1,0,0,1,-175,268.5) translate(172.24629629629624 27.766666666666666)"/><use xlink:href="#e" transform="matrix(1,0,0,1,205,268.5) translate(0 26.433333333333334)"/><use xlink:href="#A" transform="matrix(1,0,0,1,-175,316.5) translate(0 27.766666666666666)"/><use xlink:href="#B" transform="matrix(1,0,0,1,-175,316.5) translate(85.29629629629625 27.766666666666666)"/><use xlink:href="#x" transform="matrix(1,0,0,1,-175,316.5) translate(194.87592592592586 27.766666666666666)"/><use xlink:href="#e" transform="matrix(1,0,0,1,205,316.5) translate(0 26.433333333333334)"/><use xlink:href="#g" transform="matrix(1,0,0,1,-175,364.5) translate(0 27.766666666666666)"/><use xlink:href="#B" transform="matrix(1,0,0,1,-175,364.5) translate(67.88888888888887 27.766666666666666)"/><use xlink:href="#y" transform="matrix(1,0,0,1,-175,364.5) translate(177.46851851851847 27.766666666666666)"/><use xlink:href="#e" transform="matrix(1,0,0,1,205,364.5) translate(0 26.433333333333334)"/><path d="M-1432.64 800h772.98v482h-772.98z" fill="#fff"/><path d="M-1432.64 898v49h772.98v-49M-1432.64 994v49h772.98v-49M-1432.64 1090v49h772.98v-49M-1432.64 1186v49h772.98v-49" fill="#e6e6e6"/><path d="M-1432.64 850v-50h772.98v50" fill="#1071e5"/><path d="M-1432.64 800h772.98v482h-772.98zM-1432.64 850h772.98M-1046.15 850v432" stroke="#333" fill="none"/><use xlink:href="#G" transform="matrix(1,0,0,1,-1422.635766648948,800) translate(296.24629629629635 31.71111111111111)"/><use xlink:href="#b" transform="matrix(1,0,0,1,-1427.635766648948,852.5) translate(0 27.766666666666666)"/><use xlink:href="#c" transform="matrix(1,0,0,1,-1041.150041447253,852.5) translate(0 26.433333333333334)"/><use xlink:href="#H" transform="matrix(1,0,0,1,-1427.635766648948,900.5) translate(0 27.766666666666666)"/><use xlink:href="#e" transform="matrix(1,0,0,1,-1041.150041447253,900.5) translate(0 26.433333333333334)"/><use xlink:href="#f" transform="matrix(1,0,0,1,-1427.635766648948,948.5) translate(0 27.766666666666666)"/><use xlink:href="#e" transform="matrix(1,0,0,1,-1041.150041447253,948.5) translate(0 26.433333333333334)"/><use xlink:href="#i" transform="matrix(1,0,0,1,-1427.635766648948,996.5) translate(0 27.766666666666666)"/><use xlink:href="#e" transform="matrix(1,0,0,1,-1041.150041447253,996.5) translate(0 26.433333333333334)"/><use xlink:href="#j" transform="matrix(1,0,0,1,-1427.635766648948,1044.5) translate(0 27.766666666666666)"/><use xlink:href="#k" transform="matrix(1,0,0,1,-1427.635766648948,1044.5) translate(74.76481481481478 27.766666666666666)"/><use xlink:href="#l" transform="matrix(1,0,0,1,-1427.635766648948,1044.5) translate(116.54259259259254 27.766666666666666)"/><use xlink:href="#e" transform="matrix(1,0,0,1,-1041.150041447253,1044.5) translate(0 26.433333333333334)"/><use xlink:href="#m" transform="matrix(1,0,0,1,-1427.635766648948,1092.5) translate(0 27.766666666666666)"/><use xlink:href="#n" transform="matrix(1,0,0,1,-1427.635766648948,1092.5) translate(99.22222222222219 27.766666666666666)"/><use xlink:href="#o" transform="matrix(1,0,0,1,-1041.150041447253,1092.5) translate(0 26.433333333333334)"/><use xlink:href="#p" transform="matrix(1,0,0,1,-1427.635766648948,1140.5) translate(0 27.766666666666666)"/><use xlink:href="#e" transform="matrix(1,0,0,1,-1041.150041447253,1140.5) translate(0 26.433333333333334)"/><use xlink:href="#u" transform="matrix(1,0,0,1,-1427.635766648948,1188.5) translate(0 27.766666666666666)"/><use xlink:href="#I" transform="matrix(1,0,0,1,-1427.635766648948,1188.5) translate(99.22222222222219 27.766666666666666)"/><use xlink:href="#J" transform="matrix(1,0,0,1,-1427.635766648948,1188.5) translate(153.18518518518513 27.766666666666666)"/><use xlink:href="#e" transform="matrix(1,0,0,1,-1041.150041447253,1188.5) translate(0 26.433333333333334)"/><use xlink:href="#z" transform="matrix(1,0,0,1,-1427.635766648948,1236.5) translate(0 27.766666666666666)"/><use xlink:href="#v" transform="matrix(1,0,0,1,-1427.635766648948,1236.5) translate(126.987037037037 27.766666666666666)"/><use xlink:href="#J" transform="matrix(1,0,0,1,-1427.635766648948,1236.5) translate(172.24629629629624 27.766666666666666)"/><use xlink:href="#e" transform="matrix(1,0,0,1,-1041.150041447253,1236.5) translate(0 26.433333333333334)"/><path d="M780 60h820v722H780z" fill="#fff"/><path d="M780 158v49h820v-49M780 254v49h820v-49M780 350v49h820v-49M780 446v49h820v-49M780 542v49h820v-49M780 638v49h820v-49M780 734v48h820v-48" fill="#e6e6e6"/><path d="M780 110V60h820v50" fill="#1071e5"/><path d="M780 60h820v722H780zM780 110h820M1190 110v672" stroke="#333" fill="none"/><use xlink:href="#K" transform="matrix(1,0,0,1,790,60) translate(319.93271604938275 31.71111111111111)"/><use xlink:href="#b" transform="matrix(1,0,0,1,785,112.5) translate(0 27.766666666666666)"/><use xlink:href="#c" transform="matrix(1,0,0,1,1195,112.5) translate(0 26.433333333333334)"/><use xlink:href="#L" transform="matrix(1,0,0,1,785,160.5) translate(0 27.766666666666666)"/><use xlink:href="#e" transform="matrix(1,0,0,1,1195,160.5) translate(0 26.433333333333334)"/><use xlink:href="#M" transform="matrix(1,0,0,1,785,208.5) translate(0 27.766666666666666)"/><use xlink:href="#e" transform="matrix(1,0,0,1,1195,208.5) translate(0 26.433333333333334)"/><use xlink:href="#N" transform="matrix(1,0,0,1,785,256.5) translate(0 27.766666666666666)"/><use xlink:href="#h" transform="matrix(1,0,0,1,785,256.5) translate(106.09814814814811 27.766666666666666)"/><use xlink:href="#e" transform="matrix(1,0,0,1,1195,256.5) translate(0 26.433333333333334)"/><use xlink:href="#E" transform="matrix(1,0,0,1,785,304.5) translate(0 27.766666666666666)"/><use xlink:href="#h" transform="matrix(1,0,0,1,785,304.5) translate(100.78888888888886 27.766666666666666)"/><use xlink:href="#e" transform="matrix(1,0,0,1,1195,304.5) translate(0 26.433333333333334)"/><use xlink:href="#O" transform="matrix(1,0,0,1,785,352.5) translate(0 27.766666666666666)"/><use xlink:href="#e" transform="matrix(1,0,0,1,1195,352.5) translate(0 26.433333333333334)"/><use xlink:href="#P" transform="matrix(1,0,0,1,785,400.5) translate(0 27.766666666666666)"/><use xlink:href="#e" transform="matrix(1,0,0,1,1195,400.5) translate(0 26.433333333333334)"/><use xlink:href="#Q" transform="matrix(1,0,0,1,785,448.5) translate(0 27.766666666666666)"/><use xlink:href="#R" transform="matrix(1,0,0,1,785,448.5) translate(112.97407407407403 27.766666666666666)"/><use xlink:href="#c" transform="matrix(1,0,0,1,1195,448.5) translate(0 26.433333333333334)"/><use xlink:href="#S" transform="matrix(1,0,0,1,785,496.5) translate(0 27.766666666666666)"/><use xlink:href="#e" transform="matrix(1,0,0,1,1195,496.5) translate(0 26.433333333333334)"/><use xlink:href="#T" transform="matrix(1,0,0,1,785,544.5) translate(0 27.766666666666666)"/><use xlink:href="#e" transform="matrix(1,0,0,1,1195,544.5) translate(0 26.433333333333334)"/><use xlink:href="#u" transform="matrix(1,0,0,1,785,592.5) translate(0 27.766666666666666)"/><use xlink:href="#v" transform="matrix(1,0,0,1,785,592.5) translate(99.22222222222219 27.766666666666666)"/><use xlink:href="#J" transform="matrix(1,0,0,1,785,592.5) translate(144.48148148148144 27.766666666666666)"/><use xlink:href="#e" transform="matrix(1,0,0,1,1195,592.5) translate(0 26.433333333333334)"/><use xlink:href="#z" transform="matrix(1,0,0,1,785,640.5) translate(0 27.766666666666666)"/><use xlink:href="#v" transform="matrix(1,0,0,1,785,640.5) translate(126.987037037037 27.766666666666666)"/><use xlink:href="#J" transform="matrix(1,0,0,1,785,640.5) translate(172.24629629629624 27.766666666666666)"/><use xlink:href="#e" transform="matrix(1,0,0,1,1195,640.5) translate(0 26.433333333333334)"/><use xlink:href="#U" transform="matrix(1,0,0,1,785,688.5) translate(0 27.766666666666666)"/><use xlink:href="#v" transform="matrix(1,0,0,1,785,688.5) translate(147.7018518518518 27.766666666666666)"/><use xlink:href="#J" transform="matrix(1,0,0,1,785,688.5) translate(192.96111111111105 27.766666666666666)"/><use xlink:href="#e" transform="matrix(1,0,0,1,1195,688.5) translate(0 26.433333333333334)"/><use xlink:href="#V" transform="matrix(1,0,0,1,785,736.5) translate(0 27.766666666666666)"/><use xlink:href="#e" transform="matrix(1,0,0,1,1195,736.5) translate(0 26.433333333333334)"/><path d="M-240 800h820v674h-820z" fill="#fff"/><path d="M-240 898v49h820v-49M-240 994v49h820v-49M-240 1090v49h820v-49M-240 1186v49h820v-49M-240 1282v49h820v-49M-240 1378v49h820v-49" fill="#e6e6e6"/><path d="M-240 850v-50h820v50" fill="#1071e5"/><path d="M-240 800h820v674h-820zM-240 850h820M170 850v624" stroke="#333" fill="none"/><use xlink:href="#W" transform="matrix(1,0,0,1,-230,800) translate(266.9895061728396 31.71111111111111)"/><use xlink:href="#b" transform="matrix(1,0,0,1,-235,852.5) translate(0 27.766666666666666)"/><use xlink:href="#c" transform="matrix(1,0,0,1,174.99999999999994,852.5) translate(0 26.433333333333334)"/><use xlink:href="#X" transform="matrix(1,0,0,1,-235,900.5) translate(0 27.766666666666666)"/><use xlink:href="#e" transform="matrix(1,0,0,1,174.99999999999994,900.5) translate(0 26.433333333333334)"/><use xlink:href="#M" transform="matrix(1,0,0,1,-235,948.5) translate(0 27.766666666666666)"/><use xlink:href="#e" transform="matrix(1,0,0,1,174.99999999999994,948.5) translate(0 26.433333333333334)"/><use xlink:href="#N" transform="matrix(1,0,0,1,-235,996.5) translate(0 27.766666666666666)"/><use xlink:href="#h" transform="matrix(1,0,0,1,-235,996.5) translate(106.09814814814811 27.766666666666666)"/><use xlink:href="#e" transform="matrix(1,0,0,1,174.99999999999994,996.5) translate(0 26.433333333333334)"/><use xlink:href="#D" transform="matrix(1,0,0,1,-235,1044.5) translate(0 27.766666666666666)"/><use xlink:href="#e" transform="matrix(1,0,0,1,174.99999999999994,1044.5) translate(0 26.433333333333334)"/><use xlink:href="#E" transform="matrix(1,0,0,1,-235,1092.5) translate(0 27.766666666666666)"/><use xlink:href="#h" transform="matrix(1,0,0,1,-235,1092.5) translate(100.78888888888886 27.766666666666666)"/><use xlink:href="#e" transform="matrix(1,0,0,1,174.99999999999994,1092.5) translate(0 26.433333333333334)"/><use xlink:href="#S" transform="matrix(1,0,0,1,-235,1140.5) translate(0 27.766666666666666)"/><use xlink:href="#e" transform="matrix(1,0,0,1,174.99999999999994,1140.5) translate(0 26.433333333333334)"/><use xlink:href="#T" transform="matrix(1,0,0,1,-235,1188.5) translate(0 27.766666666666666)"/><use xlink:href="#e" transform="matrix(1,0,0,1,174.99999999999994,1188.5) translate(0 26.433333333333334)"/><use xlink:href="#P" transform="matrix(1,0,0,1,-235,1236.5) translate(0 27.766666666666666)"/><use xlink:href="#e" transform="matrix(1,0,0,1,174.99999999999994,1236.5) translate(0 26.433333333333334)"/><use xlink:href="#Y" transform="matrix(1,0,0,1,-235,1284.5) translate(0 27.766666666666666)"/><use xlink:href="#h" transform="matrix(1,0,0,1,-235,1284.5) translate(180.77592592592583 27.766666666666666)"/><use xlink:href="#e" transform="matrix(1,0,0,1,174.99999999999994,1284.5) translate(0 26.433333333333334)"/><use xlink:href="#z" transform="matrix(1,0,0,1,-235,1332.5) translate(0 27.766666666666666)"/><use xlink:href="#v" transform="matrix(1,0,0,1,-235,1332.5) translate(126.987037037037 27.766666666666666)"/><use xlink:href="#J" transform="matrix(1,0,0,1,-235,1332.5) translate(172.24629629629624 27.766666666666666)"/><g><use xlink:href="#e" transform="matrix(1,0,0,1,174.99999999999994,1332.5) translate(0 26.433333333333334)"/></g><g><use xlink:href="#U" transform="matrix(1,0,0,1,-235,1380.5) translate(0 27.766666666666666)"/><use xlink:href="#v" transform="matrix(1,0,0,1,-235,1380.5) translate(147.7018518518518 27.766666666666666)"/><use xlink:href="#J" transform="matrix(1,0,0,1,-235,1380.5) translate(192.96111111111105 27.766666666666666)"/></g><g><use xlink:href="#e" transform="matrix(1,0,0,1,174.99999999999994,1380.5) translate(0 26.433333333333334)"/></g><g><use xlink:href="#V" transform="matrix(1,0,0,1,-235,1428.5) translate(0 27.766666666666666)"/></g><g><use xlink:href="#e" transform="matrix(1,0,0,1,174.99999999999994,1428.5) translate(0 26.433333333333334)"/></g><path d="M-1049.83 526.5V555m0 28.5v57m0 28.52v57m0 28.5v28.5" stroke="#3a414a" stroke-width="6" fill="none"/><path d="M-1059.83 526.5h20M-1049.83 506.5v20" stroke="#3a414a" stroke-width="6" fill="#fff"/><path d="M-1059.83 798.16l10-20 10 20" stroke="#3a414a" stroke-width="6" fill="#fff" fill-opacity="0"/><path d="M-1049.83 798.16v-20" stroke="#3a414a" stroke-width="6" fill="#fff"/><path d="M-639.16 146.16h36.55m36.55 0h73.1m36.56 0H-382.68m37.15 0h74.3m37.13 0h37.15" stroke="#3a414a" stroke-width="6" fill="none"/><path d="M-639.16 156.16v-20M-659.16 146.16h20" stroke="#3a414a" stroke-width="6" fill="#fff"/><path d="M-181.84 156.16l-20-10 20-10" stroke="#3a414a" stroke-width="6" fill="#fff" fill-opacity="0"/><path d="M-181.84 146.16h-20" stroke="#3a414a" stroke-width="6" fill="#fff"/><path d="M-639.16 270h30.55m30.55 0h61.1m30.56 0h30.57l.94.07.92.22.87.35.8.5.7.6.62.72.5.8.35.88.22.9.07.95v30.46m0 30.47v60.93m0 30.46v60.93m0 30.46v60.94m0 30.46v60.93m0 30.46v60.92m0 30.46v60.93m0 30.47v30.47l.07.94.22.9.36.88.5.8.6.72.72.6.8.5.87.36.93.22.94.08h31.14m31.15 0h62.3m31.14 0h31.13" stroke="#3a414a" stroke-width="6" fill="none"/><path d="M-639.16 280v-20M-659.16 270h20" stroke="#3a414a" stroke-width="6" fill="#fff"/><path d="M-241.84 931.74l-20-10 20-10" stroke="#3a414a" stroke-width="6" fill="#fff" fill-opacity="0"/><path d="M-241.84 921.74h-20" stroke="#3a414a" stroke-width="6" fill="#fff"/><path d="M-639.16-46.15l.15-.02.14-.03.15-.06.12-.08.12-.1.1-.13.1-.13.05-.14.02-.16.02-.15v-25.62m0-25.6V-124l.07-.94.23-.9.36-.88.48-.8.6-.72.73-.6.8-.5.88-.37.92-.23.94-.07h26.34m26.35 0h52.7m26.34 0h52.7m26.34 0h52.7m26.35 0H-316l.94-.07.9-.22.88-.35.8-.5.72-.6.6-.72.5-.8.37-.88.23-.9.07-.95v-29.87m0-29.86v-59.74m0-29.86v-59.74m0-29.86v-59.74m0-29.86v-59.74m0-29.86V-584l.07-.94.22-.9.35-.88.5-.8.6-.72.72-.6.8-.5.88-.37.9-.23.95-.07h29.35m29.34 0h58.7m29.34 0h58.7m29.34 0h58.7m29.34 0h58.7m29.34 0h58.7m29.34 0h58.7m29.34 0h58.7m29.35 0h58.68m29.35 0h58.7m29.34 0h58.7m29.34 0h58.7m29.35 0h29.35l.94.07.9.22.88.35.8.5.72.6.6.72.5.8.37.88.23.9.07.95v29.87m0 29.86v59.74m0 29.86v59.74m0 29.86v59.74m0 29.86v59.74m0 29.86V-136l.07.94.22.9.35.88.5.8.6.72.72.6.8.5.88.37.9.23.95.07h27.97m27.96 0h55.94m27.96 0h55.94m27.96 0h55.94m27.96 0h55.94m27.96 0H1184l.94.07.9.22.88.35.8.5.72.6.6.72.5.8.37.88.23.9.07.95v27.84m0 27.84v55.67m0 27.84v27.83" stroke="#3a414a" stroke-width="6" fill="none"/><path d="M-639.16-36.15v-20M-659.16-46.15h20" stroke="#3a414a" stroke-width="6" fill="#fff"/><path d="M1180 58.16l10-20 10 20" stroke="#3a414a" stroke-width="6" fill="#fff" fill-opacity="0"/><path d="M1190 58.16v-20" stroke="#3a414a" stroke-width="6" fill="#fff"/><path d="M600.5 60h14l.94.07.9.22.88.35.8.5.72.6.6.72.5.8.37.88.23.9.07.95v30.12m0 30.12v60.23m0 30.12v60.23m0 30.12v60.24m0 30.1v60.24m0 30.12v60.24m0 30.12v60.23m0 30.12v60.24m0 30.13v60.24m0 30.1v60.25m0 30.12v60.24m0 30.12v30.1l-.07.95-.22.92-.35.87-.5.8-.6.72-.72.6-.8.5-.88.36-.9.22-.95.07h-17.53" stroke="#3a414a" stroke-width="6" fill="none"/><path d="M600.5 70V50M580.5 60h20" stroke="#3a414a" stroke-width="6" fill="#fff"/><path d="M581.84 1055.9l20 10-20 10" stroke="#3a414a" stroke-width="6" fill="#fff" fill-opacity="0"/><path d="M581.84 1065.9h20" stroke="#3a414a" stroke-width="6" fill="#fff"/><path d="M600.5-190.28H625m24.5 0H674l.94.07.9.2.88.37.8.5.72.6.6.72.5.8.37.86.23.92.07.94v28m0 28.02v56m0 28.02v56.02m0 28v56.03m0 28.02v56.02m0 28v56.03m0 28v28l.07.95.22.92.35.87.5.8.6.73.72.6.8.5.88.36.9.2.95.08h25.68m25.67 0h25.68" stroke="#3a414a" stroke-width="6" fill="none"/><path d="M600.5-180.28v-20M580.5-190.28h20" stroke="#3a414a" stroke-width="6" fill="#fff"/><path d="M778.16 335.88l-20-10 20-10" stroke="#3a414a" stroke-width="6" fill="#fff" fill-opacity="0"/><path d="M778.16 325.88h-20" stroke="#3a414a" stroke-width="6" fill="#fff"/><path d="M600.5 1162.03H625m24.5 0H674l.94-.07.9-.22.88-.36.8-.5.72-.6.6-.72.5-.8.37-.88.23-.9.07-.95v-28.74m0-28.76v-57.48m0-28.75v-57.48m0-28.74v-57.5m0-28.73v-57.5m0-28.74v-57.47m0-28.75v-57.5m0-28.73v-57.5m0-28.73v-57.5m0-28.73v-28.76l.07-.94.22-.9.35-.88.5-.8.6-.72.72-.6.8-.5.88-.36.9-.22.95-.08h25.68m25.67 0h25.68" stroke="#3a414a" stroke-width="6" fill="none"/><path d="M600.5 1172.03v-20M580.5 1162.03h20" stroke="#3a414a" stroke-width="6" fill="#fff"/><path d="M778.16 383.94l-20-10 20-10" stroke="#3a414a" stroke-width="6" fill="#fff" fill-opacity="0"/><path d="M778.16 373.94h-20" stroke="#3a414a" stroke-width="6" fill="#fff"/><path d="M-639.16 1066.03h30.55m30.55 0h61.1m30.56 0h30.57l.94.08.92.23.87.36.8.48.7.6.62.73.5.8.35.88.22.9.07.95v44.02m0 44.02v44.02l.07.93.22.9.36.88.5.82.6.7.72.62.8.5.87.36.93.22.94.07h31.14m31.15 0h62.3m31.14 0h31.13" stroke="#3a414a" stroke-width="6" fill="none"/><path d="M-639.16 1076.03v-20M-659.16 1066.03h20" stroke="#3a414a" stroke-width="6" fill="#fff"/><path d="M-241.84 1220.1l-20-10 20-10" stroke="#3a414a" stroke-width="6" fill="#fff" fill-opacity="0"/><path d="M-241.84 1210.1h-20" stroke="#3a414a" stroke-width="6" fill="#fff"/><path d="M-639.16 1258.28h.15l.14.05.15.06.12.07.12.1.1.12.1.13.05.14.02.15.02.16v34.97m0 34.97v69.94m0 34.96v69.94m0 34.97V1574l.07.94.23.9.36.88.48.8.6.72.73.6.8.5.88.37.92.23.94.07h34.84m34.85 0h69.7m34.85 0h69.7m34.84 0h69.7m34.84 0h69.7m34.85 0h69.7m34.85 0h69.7m34.85 0h69.7m34.84 0h69.7m34.85 0h69.68m34.85 0h69.7m34.85 0h69.7m34.84 0h69.7m34.84 0h69.7m34.85 0h69.7m34.85 0H936l.94-.07.9-.22.88-.35.8-.5.72-.6.6-.72.5-.8.37-.88.23-.9.07-.95v-36.93m0-36.94v-73.87m0-36.93v-73.87m0-36.93v-73.87m0-36.94v-73.86m0-36.94v-73.87m0-36.93v-73.87m0-36.93v-36.94" stroke="#3a414a" stroke-width="7" fill="none"/><path d="M-639.16 1268.28v-20M-659.16 1258.28h20" stroke="#3a414a" stroke-width="7" fill="#fff"/><path d="M952 784.07l-10 20-10-20" stroke="#3a414a" stroke-width="7" fill="#fff" fill-opacity="0"/><path d="M942 784.07v20" stroke="#3a414a" stroke-width="7" fill="#fff"/><defs><path fill="#333" d="M238-95c0 69-44 99-111 99C63 4 22-25 22-93v-155h51v151c-1 38 19 59 55 60 90 1 49-130 58-211h52v153" id="Z"/><path fill="#333" d="M137-138c1-29-70-34-71-4 15 46 118 7 119 86 1 83-164 76-172 9l43-7c4 19 20 25 44 25 33 8 57-30 24-41C81-84 22-81 20-136c-2-80 154-74 161-7" id="aa"/><path fill="#333" d="M185-48c-13 30-37 53-82 52C43 2 14-33 14-96s30-98 90-98c62 0 83 45 84 108H66c0 31 8 55 39 56 18 0 30-7 34-22zm-45-69c5-46-57-63-70-21-2 6-4 13-4 21h74" id="ab"/><path fill="#333" d="M135-150c-39-12-60 13-60 57V0H25l-1-190h47c2 13-1 29 3 40 6-28 27-53 61-41v41" id="ac"/><g id="a"><use transform="matrix(0.09320987654320984,0,0,0.09320987654320984,0,0)" xlink:href="#Z"/><use transform="matrix(0.09320987654320984,0,0,0.09320987654320984,24.141358024691346,0)" xlink:href="#aa"/><use transform="matrix(0.09320987654320984,0,0,0.09320987654320984,42.78333333333332,0)" xlink:href="#ab"/><use transform="matrix(0.09320987654320984,0,0,0.09320987654320984,61.425308641975285,0)" xlink:href="#ac"/><use transform="matrix(0.09320987654320984,0,0,0.09320987654320984,74.47469135802466,0)" xlink:href="#aa"/></g><path fill="#333" d="M33 0v-248h34V0H33" id="ad"/><path fill="#333" d="M85-194c31 0 48 13 60 33l-1-100h32l1 261h-30c-2-10 0-23-3-31C134-8 116 4 85 4 32 4 16-35 15-94c0-66 23-100 70-100zm9 24c-40 0-46 34-46 75 0 40 6 74 45 74 42 0 51-32 51-76 0-42-9-74-50-73" id="ae"/><g id="b"><use transform="matrix(0.08703703703703701,0,0,0.08703703703703701,0,0)" xlink:href="#ad"/><use transform="matrix(0.08703703703703701,0,0,0.08703703703703701,8.7037037037037,0)" xlink:href="#ae"/></g><path d="M33 0v-248h34V0H33" id="af"/><path d="M190 0L58-211 59 0H30v-248h39L202-35l-2-213h31V0h-41" id="ag"/><path d="M127-220V0H93v-220H8v-28h204v28h-85" id="ah"/><path d="M30 0v-248h187v28H63v79h144v27H63v87h162V0H30" id="ai"/><path d="M143 4C61 4 22-44 18-125c-5-107 100-154 193-111 17 8 29 25 37 43l-32 9c-13-25-37-40-76-40-61 0-88 39-88 99 0 61 29 100 91 101 35 0 62-11 79-27v-45h-74v-28h105v86C228-13 192 4 143 4" id="aj"/><path d="M233-177c-1 41-23 64-60 70L243 0h-38l-65-103H63V0H30v-248c88 3 205-21 203 71zM63-129c60-2 137 13 137-47 0-61-80-42-137-45v92" id="ak"/><g id="c"><use transform="matrix(0.0685185185185185,0,0,0.0685185185185185,0,0)" xlink:href="#af"/><use transform="matrix(0.0685185185185185,0,0,0.0685185185185185,6.85185185185185,0)" xlink:href="#ag"/><use transform="matrix(0.0685185185185185,0,0,0.0685185185185185,24.598148148148145,0)" xlink:href="#ah"/><use transform="matrix(0.0685185185185185,0,0,0.0685185185185185,39.6037037037037,0)" xlink:href="#ai"/><use transform="matrix(0.0685185185185185,0,0,0.0685185185185185,56.048148148148144,0)" xlink:href="#aj"/><use transform="matrix(0.0685185185185185,0,0,0.0685185185185185,75.23333333333332,0)" xlink:href="#ai"/><use transform="matrix(0.0685185185185185,0,0,0.0685185185185185,91.67777777777776,0)" xlink:href="#ak"/></g><path fill="#333" d="M232-93c-1 65-40 97-104 97C67 4 28-28 28-90v-158h33c8 89-33 224 67 224 102 0 64-133 71-224h33v155" id="al"/><path fill="#333" d="M135-143c-3-34-86-38-87 0 15 53 115 12 119 90S17 21 10-45l28-5c4 36 97 45 98 0-10-56-113-15-118-90-4-57 82-63 122-42 12 7 21 19 24 35" id="am"/><path fill="#333" d="M100-194c63 0 86 42 84 106H49c0 40 14 67 53 68 26 1 43-12 49-29l28 8c-11 28-37 45-77 45C44 4 14-33 15-96c1-61 26-98 85-98zm52 81c6-60-76-77-97-28-3 7-6 17-6 28h103" id="an"/><path fill="#333" d="M114-163C36-179 61-72 57 0H25l-1-190h30c1 12-1 29 2 39 6-27 23-49 58-41v29" id="ao"/><path fill="#333" d="M30-248c118-7 216 8 213 122C240-48 200 0 122 0H30v-248zM63-27c89 8 146-16 146-99s-60-101-146-95v194" id="ap"/><g id="d"><use transform="matrix(0.08703703703703701,0,0,0.08703703703703701,0,0)" xlink:href="#al"/><use transform="matrix(0.08703703703703701,0,0,0.08703703703703701,22.542592592592584,0)" xlink:href="#am"/><use transform="matrix(0.08703703703703701,0,0,0.08703703703703701,38.20925925925925,0)" xlink:href="#an"/><use transform="matrix(0.08703703703703701,0,0,0.08703703703703701,55.61666666666665,0)" xlink:href="#ao"/><use transform="matrix(0.08703703703703701,0,0,0.08703703703703701,65.97407407407405,0)" xlink:href="#ad"/><use transform="matrix(0.08703703703703701,0,0,0.08703703703703701,74.67777777777775,0)" xlink:href="#ap"/></g><path d="M137 0h-34L2-248h35l83 218 83-218h36" id="aq"/><path d="M205 0l-28-72H64L36 0H1l101-248h38L239 0h-34zm-38-99l-47-123c-12 45-31 82-46 123h93" id="ar"/><path d="M212-179c-10-28-35-45-73-45-59 0-87 40-87 99 0 60 29 101 89 101 43 0 62-24 78-52l27 14C228-24 195 4 139 4 59 4 22-46 18-125c-6-104 99-153 187-111 19 9 31 26 39 46" id="as"/><path d="M197 0v-115H63V0H30v-248h33v105h134v-105h34V0h-34" id="at"/><g id="e"><use transform="matrix(0.0685185185185185,0,0,0.0685185185185185,0,0)" xlink:href="#aq"/><use transform="matrix(0.0685185185185185,0,0,0.0685185185185185,14.594444444444443,0)" xlink:href="#ar"/><use transform="matrix(0.0685185185185185,0,0,0.0685185185185185,31.038888888888884,0)" xlink:href="#ak"/><use transform="matrix(0.0685185185185185,0,0,0.0685185185185185,48.78518518518518,0)" xlink:href="#as"/><use transform="matrix(0.0685185185185185,0,0,0.0685185185185185,66.53148148148148,0)" xlink:href="#at"/><use transform="matrix(0.0685185185185185,0,0,0.0685185185185185,84.27777777777777,0)" xlink:href="#ar"/><use transform="matrix(0.0685185185185185,0,0,0.0685185185185185,100.72222222222221,0)" xlink:href="#ak"/></g><path fill="#333" d="M190 0L58-211 59 0H30v-248h39L202-35l-2-213h31V0h-41" id="au"/><path fill="#333" d="M141-36C126-15 110 5 73 4 37 3 15-17 15-53c-1-64 63-63 125-63 3-35-9-54-41-54-24 1-41 7-42 31l-33-3c5-37 33-52 76-52 45 0 72 20 72 64v82c-1 20 7 32 28 27v20c-31 9-61-2-59-35zM48-53c0 20 12 33 32 33 41-3 63-29 60-74-43 2-92-5-92 41" id="av"/><path fill="#333" d="M210-169c-67 3-38 105-44 169h-31v-121c0-29-5-50-35-48C34-165 62-65 56 0H25l-1-190h30c1 10-1 24 2 32 10-44 99-50 107 0 11-21 27-35 58-36 85-2 47 119 55 194h-31v-121c0-29-5-49-35-48" id="aw"/><g id="f"><use transform="matrix(0.08703703703703701,0,0,0.08703703703703701,0,0)" xlink:href="#au"/><use transform="matrix(0.08703703703703701,0,0,0.08703703703703701,22.542592592592584,0)" xlink:href="#av"/><use transform="matrix(0.08703703703703701,0,0,0.08703703703703701,39.94999999999999,0)" xlink:href="#aw"/><use transform="matrix(0.08703703703703701,0,0,0.08703703703703701,65.97407407407405,0)" xlink:href="#an"/></g><path fill="#333" d="M30 0v-248h33v221h125V0H30" id="ax"/><path fill="#333" d="M59-47c-2 24 18 29 38 22v24C64 9 27 4 27-40v-127H5v-23h24l9-43h21v43h35v23H59v120" id="ay"/><g id="g"><use transform="matrix(0.08703703703703701,0,0,0.08703703703703701,0,0)" xlink:href="#ax"/><use transform="matrix(0.08703703703703701,0,0,0.08703703703703701,17.4074074074074,0)" xlink:href="#av"/><use transform="matrix(0.08703703703703701,0,0,0.08703703703703701,34.8148148148148,0)" xlink:href="#am"/><use transform="matrix(0.08703703703703701,0,0,0.08703703703703701,50.48148148148147,0)" xlink:href="#ay"/></g><g id="h"><use transform="matrix(0.08703703703703701,0,0,0.08703703703703701,0,0)" xlink:href="#au"/><use transform="matrix(0.08703703703703701,0,0,0.08703703703703701,22.542592592592584,0)" xlink:href="#av"/><use transform="matrix(0.08703703703703701,0,0,0.08703703703703701,39.94999999999999,0)" xlink:href="#aw"/><use transform="matrix(0.08703703703703701,0,0,0.08703703703703701,65.97407407407405,0)" xlink:href="#an"/></g><path fill="#333" d="M143 4C61 4 22-44 18-125c-5-107 100-154 193-111 17 8 29 25 37 43l-32 9c-13-25-37-40-76-40-61 0-88 39-88 99 0 61 29 100 91 101 35 0 62-11 79-27v-45h-74v-28h105v86C228-13 192 4 143 4" id="az"/><path fill="#333" d="M117-194c89-4 53 116 60 194h-32v-121c0-31-8-49-39-48C34-167 62-67 57 0H25l-1-190h30c1 10-1 24 2 32 11-22 29-35 61-36" id="aA"/><g id="i"><use transform="matrix(0.08703703703703701,0,0,0.08703703703703701,0,0)" xlink:href="#az"/><use transform="matrix(0.08703703703703701,0,0,0.08703703703703701,24.370370370370363,0)" xlink:href="#an"/><use transform="matrix(0.08703703703703701,0,0,0.08703703703703701,41.777777777777764,0)" xlink:href="#aA"/><use transform="matrix(0.08703703703703701,0,0,0.08703703703703701,59.18518518518517,0)" xlink:href="#ae"/><use transform="matrix(0.08703703703703701,0,0,0.08703703703703701,76.59259259259257,0)" xlink:href="#an"/><use transform="matrix(0.08703703703703701,0,0,0.08703703703703701,93.99999999999997,0)" xlink:href="#ao"/></g><g id="j"><use transform="matrix(0.08703703703703701,0,0,0.08703703703703701,0,0)" xlink:href="#ap"/><use transform="matrix(0.08703703703703701,0,0,0.08703703703703701,22.542592592592584,0)" xlink:href="#av"/><use transform="matrix(0.08703703703703701,0,0,0.08703703703703701,39.94999999999999,0)" xlink:href="#ay"/><use transform="matrix(0.08703703703703701,0,0,0.08703703703703701,48.65370370370369,0)" xlink:href="#an"/></g><path fill="#333" d="M140-251c81 0 123 46 123 126C263-46 219 4 140 4 59 4 17-45 17-125s42-126 123-126zm0 227c63 0 89-41 89-101s-29-99-89-99c-61 0-89 39-89 99S79-25 140-24" id="aB"/><path fill="#333" d="M101-234c-31-9-42 10-38 44h38v23H63V0H32v-167H5v-23h27c-7-52 17-82 69-68v24" id="aC"/><g id="k"><use transform="matrix(0.08703703703703701,0,0,0.08703703703703701,0,0)" xlink:href="#aB"/><use transform="matrix(0.08703703703703701,0,0,0.08703703703703701,24.370370370370363,0)" xlink:href="#aC"/></g><path fill="#333" d="M160-131c35 5 61 23 61 61C221 17 115-2 30 0v-248c76 3 177-17 177 60 0 33-19 50-47 57zm-97-11c50-1 110 9 110-42 0-47-63-36-110-37v79zm0 115c55-2 124 14 124-45 0-56-70-42-124-44v89" id="aD"/><path fill="#333" d="M24-231v-30h32v30H24zM24 0v-190h32V0H24" id="aE"/><path fill="#333" d="M106-169C34-169 62-67 57 0H25v-261h32l-1 103c12-21 28-36 61-36 89 0 53 116 60 194h-32v-121c2-32-8-49-39-48" id="aF"/><g id="l"><use transform="matrix(0.08703703703703701,0,0,0.08703703703703701,0,0)" xlink:href="#aD"/><use transform="matrix(0.08703703703703701,0,0,0.08703703703703701,20.888888888888882,0)" xlink:href="#aE"/><use transform="matrix(0.08703703703703701,0,0,0.08703703703703701,27.764814814814805,0)" xlink:href="#ao"/><use transform="matrix(0.08703703703703701,0,0,0.08703703703703701,38.122222222222206,0)" xlink:href="#ay"/><use transform="matrix(0.08703703703703701,0,0,0.08703703703703701,46.82592592592591,0)" xlink:href="#aF"/></g><path fill="#333" d="M30-248c87 1 191-15 191 75 0 78-77 80-158 76V0H30v-248zm33 125c57 0 124 11 124-50 0-59-68-47-124-48v98" id="aG"/><path fill="#333" d="M100-194c62-1 85 37 85 99 1 63-27 99-86 99S16-35 15-95c0-66 28-99 85-99zM99-20c44 1 53-31 53-75 0-43-8-75-51-75s-53 32-53 75 10 74 51 75" id="aH"/><g id="m"><use transform="matrix(0.08703703703703701,0,0,0.08703703703703701,0,0)" xlink:href="#aG"/><use transform="matrix(0.08703703703703701,0,0,0.08703703703703701,20.888888888888882,0)" xlink:href="#aF"/><use transform="matrix(0.08703703703703701,0,0,0.08703703703703701,38.29629629629628,0)" xlink:href="#aH"/><use transform="matrix(0.08703703703703701,0,0,0.08703703703703701,55.703703703703674,0)" xlink:href="#aA"/><use transform="matrix(0.08703703703703701,0,0,0.08703703703703701,73.11111111111109,0)" xlink:href="#an"/></g><path fill="#333" d="M84 4C-5 8 30-112 23-190h32v120c0 31 7 50 39 49 72-2 45-101 50-169h31l1 190h-30c-1-10 1-25-2-33-11 22-28 36-60 37" id="aI"/><path fill="#333" d="M115-194c53 0 69 39 70 98 0 66-23 100-70 100C84 3 66-7 56-30L54 0H23l1-261h32v101c10-23 28-34 59-34zm-8 174c40 0 45-34 45-75 0-40-5-75-45-74-42 0-51 32-51 76 0 43 10 73 51 73" id="aJ"/><g id="n"><use transform="matrix(0.08703703703703701,0,0,0.08703703703703701,0,0)" xlink:href="#au"/><use transform="matrix(0.08703703703703701,0,0,0.08703703703703701,22.542592592592584,0)" xlink:href="#aI"/><use transform="matrix(0.08703703703703701,0,0,0.08703703703703701,39.94999999999999,0)" xlink:href="#aw"/><use transform="matrix(0.08703703703703701,0,0,0.08703703703703701,65.97407407407405,0)" xlink:href="#aJ"/><use transform="matrix(0.08703703703703701,0,0,0.08703703703703701,83.38148148148146,0)" xlink:href="#an"/><use transform="matrix(0.08703703703703701,0,0,0.08703703703703701,100.78888888888886,0)" xlink:href="#ao"/></g><g id="o"><use transform="matrix(0.0685185185185185,0,0,0.0685185185185185,0,0)" xlink:href="#af"/><use transform="matrix(0.0685185185185185,0,0,0.0685185185185185,6.85185185185185,0)" xlink:href="#ag"/><use transform="matrix(0.0685185185185185,0,0,0.0685185185185185,24.598148148148145,0)" xlink:href="#ah"/></g><path fill="#333" d="M205 0l-28-72H64L36 0H1l101-248h38L239 0h-34zm-38-99l-47-123c-12 45-31 82-46 123h93" id="aK"/><g id="p"><use transform="matrix(0.08703703703703701,0,0,0.08703703703703701,0,0)" xlink:href="#aK"/><use transform="matrix(0.08703703703703701,0,0,0.08703703703703701,20.888888888888882,0)" xlink:href="#ae"/><use transform="matrix(0.08703703703703701,0,0,0.08703703703703701,38.29629629629628,0)" xlink:href="#ae"/><use transform="matrix(0.08703703703703701,0,0,0.08703703703703701,55.703703703703674,0)" xlink:href="#ao"/><use transform="matrix(0.08703703703703701,0,0,0.08703703703703701,66.06111111111109,0)" xlink:href="#an"/><use transform="matrix(0.08703703703703701,0,0,0.08703703703703701,83.4685185185185,0)" xlink:href="#am"/><use transform="matrix(0.08703703703703701,0,0,0.08703703703703701,99.13518518518515,0)" xlink:href="#am"/></g><g id="q"><use transform="matrix(0.08703703703703701,0,0,0.08703703703703701,0,0)" xlink:href="#al"/><use transform="matrix(0.08703703703703701,0,0,0.08703703703703701,22.542592592592584,0)" xlink:href="#am"/><use transform="matrix(0.08703703703703701,0,0,0.08703703703703701,38.20925925925925,0)" xlink:href="#an"/><use transform="matrix(0.08703703703703701,0,0,0.08703703703703701,55.61666666666665,0)" xlink:href="#aA"/><use transform="matrix(0.08703703703703701,0,0,0.08703703703703701,73.02407407407405,0)" xlink:href="#av"/><use transform="matrix(0.08703703703703701,0,0,0.08703703703703701,90.43148148148146,0)" xlink:href="#aw"/><use transform="matrix(0.08703703703703701,0,0,0.08703703703703701,116.45555555555552,0)" xlink:href="#an"/></g><path fill="#333" d="M206 0h-36l-40-164L89 0H53L-1-190h32L70-26l43-164h34l41 164 42-164h31" id="aL"/><g id="r"><use transform="matrix(0.08703703703703701,0,0,0.08703703703703701,0,0)" xlink:href="#aG"/><use transform="matrix(0.08703703703703701,0,0,0.08703703703703701,20.888888888888882,0)" xlink:href="#av"/><use transform="matrix(0.08703703703703701,0,0,0.08703703703703701,38.29629629629628,0)" xlink:href="#am"/><use transform="matrix(0.08703703703703701,0,0,0.08703703703703701,53.96296296296295,0)" xlink:href="#am"/><use transform="matrix(0.08703703703703701,0,0,0.08703703703703701,69.6296296296296,0)" xlink:href="#aL"/><use transform="matrix(0.08703703703703701,0,0,0.08703703703703701,92.17222222222219,0)" xlink:href="#aH"/><use transform="matrix(0.08703703703703701,0,0,0.08703703703703701,109.5796296296296,0)" xlink:href="#ao"/><use transform="matrix(0.08703703703703701,0,0,0.08703703703703701,119.937037037037,0)" xlink:href="#ae"/></g><g id="s"><use transform="matrix(0.08703703703703701,0,0,0.08703703703703701,0,0)" xlink:href="#al"/><use transform="matrix(0.08703703703703701,0,0,0.08703703703703701,22.542592592592584,0)" xlink:href="#am"/><use transform="matrix(0.08703703703703701,0,0,0.08703703703703701,38.20925925925925,0)" xlink:href="#an"/><use transform="matrix(0.08703703703703701,0,0,0.08703703703703701,55.61666666666665,0)" xlink:href="#ao"/></g><path fill="#333" d="M127-220V0H93v-220H8v-28h204v28h-85" id="aM"/><path fill="#333" d="M179-190L93 31C79 59 56 82 12 73V49c39 6 53-20 64-50L1-190h34L92-34l54-156h33" id="aN"/><path fill="#333" d="M115-194c55 1 70 41 70 98S169 2 115 4C84 4 66-9 55-30l1 105H24l-1-265h31l2 30c10-21 28-34 59-34zm-8 174c40 0 45-34 45-75s-6-73-45-74c-42 0-51 32-51 76 0 43 10 73 51 73" id="aO"/><g id="t"><use transform="matrix(0.08703703703703701,0,0,0.08703703703703701,0,0)" xlink:href="#aM"/><use transform="matrix(0.08703703703703701,0,0,0.08703703703703701,17.320370370370366,0)" xlink:href="#aN"/><use transform="matrix(0.08703703703703701,0,0,0.08703703703703701,32.98703703703703,0)" xlink:href="#aO"/><use transform="matrix(0.08703703703703701,0,0,0.08703703703703701,50.39444444444443,0)" xlink:href="#an"/></g><g id="u"><use transform="matrix(0.08703703703703701,0,0,0.08703703703703701,0,0)" xlink:href="#aK"/><use transform="matrix(0.08703703703703701,0,0,0.08703703703703701,20.888888888888882,0)" xlink:href="#ae"/><use transform="matrix(0.08703703703703701,0,0,0.08703703703703701,38.29629629629628,0)" xlink:href="#ae"/><use transform="matrix(0.08703703703703701,0,0,0.08703703703703701,55.703703703703674,0)" xlink:href="#an"/><use transform="matrix(0.08703703703703701,0,0,0.08703703703703701,73.11111111111109,0)" xlink:href="#ae"/></g><g id="v"><use transform="matrix(0.08703703703703701,0,0,0.08703703703703701,0,0)" xlink:href="#aD"/><use transform="matrix(0.08703703703703701,0,0,0.08703703703703701,20.888888888888882,0)" xlink:href="#aN"/></g><path fill="#333" d="M185-189c-5-48-123-54-124 2 14 75 158 14 163 119 3 78-121 87-175 55-17-10-28-26-33-46l33-7c5 56 141 63 141-1 0-78-155-14-162-118-5-82 145-84 179-34 5 7 8 16 11 25" id="aP"/><path fill="#333" d="M108 0H70L1-190h34L89-25l56-165h34" id="aQ"/><g id="w"><use transform="matrix(0.08703703703703701,0,0,0.08703703703703701,0,0)" xlink:href="#aP"/><use transform="matrix(0.08703703703703701,0,0,0.08703703703703701,20.888888888888882,0)" xlink:href="#aI"/><use transform="matrix(0.08703703703703701,0,0,0.08703703703703701,38.29629629629628,0)" xlink:href="#aO"/><use transform="matrix(0.08703703703703701,0,0,0.08703703703703701,55.703703703703674,0)" xlink:href="#an"/><use transform="matrix(0.08703703703703701,0,0,0.08703703703703701,73.11111111111109,0)" xlink:href="#ao"/><use transform="matrix(0.08703703703703701,0,0,0.08703703703703701,83.4685185185185,0)" xlink:href="#aQ"/><use transform="matrix(0.08703703703703701,0,0,0.08703703703703701,99.13518518518515,0)" xlink:href="#aE"/><use transform="matrix(0.08703703703703701,0,0,0.08703703703703701,106.01111111111108,0)" xlink:href="#am"/><use transform="matrix(0.08703703703703701,0,0,0.08703703703703701,121.67777777777773,0)" xlink:href="#aH"/><use transform="matrix(0.08703703703703701,0,0,0.08703703703703701,139.08518518518514,0)" xlink:href="#ao"/></g><g id="x"><use transform="matrix(0.08703703703703701,0,0,0.08703703703703701,0,0)" xlink:href="#ap"/><use transform="matrix(0.08703703703703701,0,0,0.08703703703703701,22.542592592592584,0)" xlink:href="#av"/><use transform="matrix(0.08703703703703701,0,0,0.08703703703703701,39.94999999999999,0)" xlink:href="#ay"/><use transform="matrix(0.08703703703703701,0,0,0.08703703703703701,48.65370370370369,0)" xlink:href="#an"/></g><g id="y"><use transform="matrix(0.08703703703703701,0,0,0.08703703703703701,0,0)" xlink:href="#aM"/><use transform="matrix(0.08703703703703701,0,0,0.08703703703703701,17.929629629629627,0)" xlink:href="#aE"/><use transform="matrix(0.08703703703703701,0,0,0.08703703703703701,24.805555555555546,0)" xlink:href="#aw"/><use transform="matrix(0.08703703703703701,0,0,0.08703703703703701,50.829629629629615,0)" xlink:href="#an"/></g><g id="z"><use transform="matrix(0.08703703703703701,0,0,0.08703703703703701,0,0)" xlink:href="#al"/><use transform="matrix(0.08703703703703701,0,0,0.08703703703703701,22.542592592592584,0)" xlink:href="#aO"/><use transform="matrix(0.08703703703703701,0,0,0.08703703703703701,39.94999999999999,0)" xlink:href="#ae"/><use transform="matrix(0.08703703703703701,0,0,0.08703703703703701,57.357407407407386,0)" xlink:href="#av"/><use transform="matrix(0.08703703703703701,0,0,0.08703703703703701,74.7648148148148,0)" xlink:href="#ay"/><use transform="matrix(0.08703703703703701,0,0,0.08703703703703701,83.4685185185185,0)" xlink:href="#an"/><use transform="matrix(0.08703703703703701,0,0,0.08703703703703701,100.8759259259259,0)" xlink:href="#ae"/></g><g id="A"><use transform="matrix(0.08703703703703701,0,0,0.08703703703703701,0,0)" xlink:href="#ax"/><use transform="matrix(0.08703703703703701,0,0,0.08703703703703701,17.4074074074074,0)" xlink:href="#av"/><use transform="matrix(0.08703703703703701,0,0,0.08703703703703701,34.8148148148148,0)" xlink:href="#av"/><use transform="matrix(0.08703703703703701,0,0,0.08703703703703701,52.22222222222219,0)" xlink:href="#am"/><use transform="matrix(0.08703703703703701,0,0,0.08703703703703701,67.88888888888886,0)" xlink:href="#ay"/></g><g id="B"><use transform="matrix(0.08703703703703701,0,0,0.08703703703703701,0,0)" xlink:href="#al"/><use transform="matrix(0.08703703703703701,0,0,0.08703703703703701,22.542592592592584,0)" xlink:href="#aO"/><use transform="matrix(0.08703703703703701,0,0,0.08703703703703701,39.94999999999999,0)" xlink:href="#ae"/><use transform="matrix(0.08703703703703701,0,0,0.08703703703703701,57.357407407407386,0)" xlink:href="#av"/><use transform="matrix(0.08703703703703701,0,0,0.08703703703703701,74.7648148148148,0)" xlink:href="#ay"/><use transform="matrix(0.08703703703703701,0,0,0.08703703703703701,83.4685185185185,0)" xlink:href="#an"/></g><path fill="#333" d="M24-248c120-7 223 5 221 122C244-46 201 0 124 0H24v-248zM76-40c74 7 117-18 117-86 0-67-45-88-117-82v168" id="aR"/><path fill="#333" d="M140-251c80 0 125 45 125 126S219 4 139 4C58 4 15-44 15-125s44-126 125-126zm-1 214c52 0 73-35 73-88 0-50-21-86-72-86-52 0-73 35-73 86s22 88 72 88" id="aS"/><path fill="#333" d="M67-125c0 53 21 87 73 88 37 1 54-22 65-47l45 17C233-25 199 4 140 4 58 4 20-42 15-125 8-235 124-281 211-232c18 10 29 29 36 50l-46 12c-8-25-30-41-62-41-52 0-71 34-72 86" id="aT"/><path fill="#333" d="M136-208V0H84v-208H4v-40h212v40h-80" id="aU"/><path fill="#333" d="M240-174c0 40-23 61-54 70L253 0h-59l-57-94H76V0H24v-248c93 4 217-23 216 74zM76-134c48-2 112 12 112-38 0-48-66-32-112-35v73" id="aV"/><path fill="#333" d="M169-182c-1-43-94-46-97-3 18 66 151 10 154 114 3 95-165 93-204 36-6-8-10-19-12-30l50-8c3 46 112 56 116 5-17-69-150-10-154-114-4-87 153-88 188-35 5 8 8 18 10 28" id="aW"/><g id="C"><use transform="matrix(0.09320987654320984,0,0,0.09320987654320984,0,0)" xlink:href="#aR"/><use transform="matrix(0.09320987654320984,0,0,0.09320987654320984,24.141358024691346,0)" xlink:href="#aS"/><use transform="matrix(0.09320987654320984,0,0,0.09320987654320984,50.2401234567901,0)" xlink:href="#aT"/><use transform="matrix(0.09320987654320984,0,0,0.09320987654320984,74.38148148148144,0)" xlink:href="#aU"/><use transform="matrix(0.09320987654320984,0,0,0.09320987654320984,94.14197530864193,0)" xlink:href="#aS"/><use transform="matrix(0.09320987654320984,0,0,0.09320987654320984,120.24074074074069,0)" xlink:href="#aV"/><use transform="matrix(0.09320987654320984,0,0,0.09320987654320984,144.38209876543203,0)" xlink:href="#aW"/></g><path fill="#333" d="M96-169c-40 0-48 33-48 73s9 75 48 75c24 0 41-14 43-38l32 2c-6 37-31 61-74 61-59 0-76-41-82-99-10-93 101-131 147-64 4 7 5 14 7 22l-32 3c-4-21-16-35-41-35" id="aX"/><g id="D"><use transform="matrix(0.08703703703703701,0,0,0.08703703703703701,0,0)" xlink:href="#ap"/><use transform="matrix(0.08703703703703701,0,0,0.08703703703703701,22.542592592592584,0)" xlink:href="#aH"/><use transform="matrix(0.08703703703703701,0,0,0.08703703703703701,39.94999999999999,0)" xlink:href="#aX"/><use transform="matrix(0.08703703703703701,0,0,0.08703703703703701,55.61666666666665,0)" xlink:href="#ay"/><use transform="matrix(0.08703703703703701,0,0,0.08703703703703701,64.32037037037036,0)" xlink:href="#aH"/><use transform="matrix(0.08703703703703701,0,0,0.08703703703703701,81.72777777777776,0)" xlink:href="#ao"/><use transform="matrix(0.08703703703703701,0,0,0.08703703703703701,92.08518518518518,0)" xlink:href="#ad"/><use transform="matrix(0.08703703703703701,0,0,0.08703703703703701,100.78888888888886,0)" xlink:href="#ap"/></g><g id="E"><use transform="matrix(0.08703703703703701,0,0,0.08703703703703701,0,0)" xlink:href="#ap"/><use transform="matrix(0.08703703703703701,0,0,0.08703703703703701,22.542592592592584,0)" xlink:href="#aH"/><use transform="matrix(0.08703703703703701,0,0,0.08703703703703701,39.94999999999999,0)" xlink:href="#aX"/><use transform="matrix(0.08703703703703701,0,0,0.08703703703703701,55.61666666666665,0)" xlink:href="#ay"/><use transform="matrix(0.08703703703703701,0,0,0.08703703703703701,64.32037037037036,0)" xlink:href="#aH"/><use transform="matrix(0.08703703703703701,0,0,0.08703703703703701,81.72777777777776,0)" xlink:href="#ao"/></g><path fill="#333" d="M24 0v-261h32V0H24" id="aY"/><g id="F"><use transform="matrix(0.08703703703703701,0,0,0.08703703703703701,0,0)" xlink:href="#aP"/><use transform="matrix(0.08703703703703701,0,0,0.08703703703703701,20.888888888888882,0)" xlink:href="#aO"/><use transform="matrix(0.08703703703703701,0,0,0.08703703703703701,38.29629629629628,0)" xlink:href="#an"/><use transform="matrix(0.08703703703703701,0,0,0.08703703703703701,55.703703703703674,0)" xlink:href="#aX"/><use transform="matrix(0.08703703703703701,0,0,0.08703703703703701,71.37037037037034,0)" xlink:href="#aE"/><use transform="matrix(0.08703703703703701,0,0,0.08703703703703701,78.24629629629626,0)" xlink:href="#av"/><use transform="matrix(0.08703703703703701,0,0,0.08703703703703701,95.65370370370367,0)" xlink:href="#aY"/><use transform="matrix(0.08703703703703701,0,0,0.08703703703703701,102.5296296296296,0)" xlink:href="#aE"/><use transform="matrix(0.08703703703703701,0,0,0.08703703703703701,109.40555555555552,0)" xlink:href="#am"/><use transform="matrix(0.08703703703703701,0,0,0.08703703703703701,125.07222222222218,0)" xlink:href="#ay"/></g><path fill="#333" d="M24-248c93 1 206-16 204 79-1 75-69 88-152 82V0H24v-248zm52 121c47 0 100 7 100-41 0-47-54-39-100-39v80" id="aZ"/><path fill="#333" d="M199 0l-22-63H83L61 0H9l90-248h61L250 0h-51zm-33-102l-36-108c-10 38-24 72-36 108h72" id="ba"/><path fill="#333" d="M24 0v-248h52V0H24" id="bb"/><path fill="#333" d="M24 0v-248h195v40H76v63h132v40H76v65h150V0H24" id="bc"/><path fill="#333" d="M175 0L67-191c6 58 2 128 3 191H24v-248h59L193-55c-6-58-2-129-3-193h46V0h-61" id="bd"/><g id="G"><use transform="matrix(0.09320987654320984,0,0,0.09320987654320984,0,0)" xlink:href="#aZ"/><use transform="matrix(0.09320987654320984,0,0,0.09320987654320984,19.853703703703694,0)" xlink:href="#ba"/><use transform="matrix(0.09320987654320984,0,0,0.09320987654320984,41.47839506172838,0)" xlink:href="#aU"/><use transform="matrix(0.09320987654320984,0,0,0.09320987654320984,61.89135802469133,0)" xlink:href="#bb"/><use transform="matrix(0.09320987654320984,0,0,0.09320987654320984,71.21234567901232,0)" xlink:href="#bc"/><use transform="matrix(0.09320987654320984,0,0,0.09320987654320984,93.58271604938267,0)" xlink:href="#bd"/><use transform="matrix(0.09320987654320984,0,0,0.09320987654320984,117.724074074074,0)" xlink:href="#aU"/><use transform="matrix(0.09320987654320984,0,0,0.09320987654320984,138.13703703703698,0)" xlink:href="#aW"/></g><g id="H"><use transform="matrix(0.08703703703703701,0,0,0.08703703703703701,0,0)" xlink:href="#aG"/><use transform="matrix(0.08703703703703701,0,0,0.08703703703703701,20.888888888888882,0)" xlink:href="#av"/><use transform="matrix(0.08703703703703701,0,0,0.08703703703703701,38.29629629629628,0)" xlink:href="#ay"/><use transform="matrix(0.08703703703703701,0,0,0.08703703703703701,46.999999999999986,0)" xlink:href="#aE"/><use transform="matrix(0.08703703703703701,0,0,0.08703703703703701,53.87592592592591,0)" xlink:href="#an"/><use transform="matrix(0.08703703703703701,0,0,0.08703703703703701,71.28333333333332,0)" xlink:href="#aA"/><use transform="matrix(0.08703703703703701,0,0,0.08703703703703701,88.69074074074072,0)" xlink:href="#ay"/><use transform="matrix(0.08703703703703701,0,0,0.08703703703703701,97.39444444444442,0)" xlink:href="#ad"/><use transform="matrix(0.08703703703703701,0,0,0.08703703703703701,106.09814814814811,0)" xlink:href="#ap"/></g><g id="I"><use transform="matrix(0.08703703703703701,0,0,0.08703703703703701,0,0)" xlink:href="#aD"/><use transform="matrix(0.08703703703703701,0,0,0.08703703703703701,20.888888888888882,0)" xlink:href="#aN"/></g><path fill="#333" d="M233-177c-1 41-23 64-60 70L243 0h-38l-65-103H63V0H30v-248c88 3 205-21 203 71zM63-129c60-2 137 13 137-47 0-61-80-42-137-45v92" id="be"/><g id="J"><use transform="matrix(0.08703703703703701,0,0,0.08703703703703701,0,0)" xlink:href="#be"/><use transform="matrix(0.08703703703703701,0,0,0.08703703703703701,22.542592592592584,0)" xlink:href="#an"/><use transform="matrix(0.08703703703703701,0,0,0.08703703703703701,39.94999999999999,0)" xlink:href="#aX"/><use transform="matrix(0.08703703703703701,0,0,0.08703703703703701,55.61666666666665,0)" xlink:href="#an"/><use transform="matrix(0.08703703703703701,0,0,0.08703703703703701,73.02407407407405,0)" xlink:href="#aO"/><use transform="matrix(0.08703703703703701,0,0,0.08703703703703701,90.43148148148146,0)" xlink:href="#ay"/><use transform="matrix(0.08703703703703701,0,0,0.08703703703703701,99.13518518518515,0)" xlink:href="#aE"/><use transform="matrix(0.08703703703703701,0,0,0.08703703703703701,106.01111111111108,0)" xlink:href="#aH"/><use transform="matrix(0.08703703703703701,0,0,0.08703703703703701,123.41851851851848,0)" xlink:href="#aA"/><use transform="matrix(0.08703703703703701,0,0,0.08703703703703701,140.82592592592587,0)" xlink:href="#aE"/><use transform="matrix(0.08703703703703701,0,0,0.08703703703703701,147.70185185185179,0)" xlink:href="#am"/><use transform="matrix(0.08703703703703701,0,0,0.08703703703703701,163.36851851851844,0)" xlink:href="#ay"/></g><path fill="#333" d="M147 0H94L2-248h55l64 206c17-72 42-137 63-206h54" id="bf"/><g id="K"><use transform="matrix(0.09320987654320984,0,0,0.09320987654320984,0,0)" xlink:href="#bb"/><use transform="matrix(0.09320987654320984,0,0,0.09320987654320984,9.320987654320984,0)" xlink:href="#bd"/><use transform="matrix(0.09320987654320984,0,0,0.09320987654320984,33.46234567901233,0)" xlink:href="#bf"/><use transform="matrix(0.09320987654320984,0,0,0.09320987654320984,55.83271604938269,0)" xlink:href="#aS"/><use transform="matrix(0.09320987654320984,0,0,0.09320987654320984,81.93148148148144,0)" xlink:href="#bb"/><use transform="matrix(0.09320987654320984,0,0,0.09320987654320984,91.25246913580243,0)" xlink:href="#aT"/><use transform="matrix(0.09320987654320984,0,0,0.09320987654320984,115.39382716049377,0)" xlink:href="#bc"/><use transform="matrix(0.09320987654320984,0,0,0.09320987654320984,137.76419753086412,0)" xlink:href="#aW"/></g><g id="L"><use transform="matrix(0.08703703703703701,0,0,0.08703703703703701,0,0)" xlink:href="#ad"/><use transform="matrix(0.08703703703703701,0,0,0.08703703703703701,8.7037037037037,0)" xlink:href="#aA"/><use transform="matrix(0.08703703703703701,0,0,0.08703703703703701,26.111111111111097,0)" xlink:href="#aQ"/><use transform="matrix(0.08703703703703701,0,0,0.08703703703703701,41.777777777777764,0)" xlink:href="#aH"/><use transform="matrix(0.08703703703703701,0,0,0.08703703703703701,59.18518518518517,0)" xlink:href="#aE"/><use transform="matrix(0.08703703703703701,0,0,0.08703703703703701,66.06111111111109,0)" xlink:href="#aX"/><use transform="matrix(0.08703703703703701,0,0,0.08703703703703701,81.72777777777775,0)" xlink:href="#an"/><use transform="matrix(0.08703703703703701,0,0,0.08703703703703701,99.13518518518515,0)" xlink:href="#ad"/><use transform="matrix(0.08703703703703701,0,0,0.08703703703703701,107.83888888888886,0)" xlink:href="#ap"/></g><g id="M"><use transform="matrix(0.08703703703703701,0,0,0.08703703703703701,0,0)" xlink:href="#aG"/><use transform="matrix(0.08703703703703701,0,0,0.08703703703703701,20.888888888888882,0)" xlink:href="#av"/><use transform="matrix(0.08703703703703701,0,0,0.08703703703703701,38.29629629629628,0)" xlink:href="#ay"/><use transform="matrix(0.08703703703703701,0,0,0.08703703703703701,46.999999999999986,0)" xlink:href="#aE"/><use transform="matrix(0.08703703703703701,0,0,0.08703703703703701,53.87592592592591,0)" xlink:href="#an"/><use transform="matrix(0.08703703703703701,0,0,0.08703703703703701,71.28333333333332,0)" xlink:href="#aA"/><use transform="matrix(0.08703703703703701,0,0,0.08703703703703701,88.69074074074072,0)" xlink:href="#ay"/><use transform="matrix(0.08703703703703701,0,0,0.08703703703703701,97.39444444444442,0)" xlink:href="#ay"/><use transform="matrix(0.08703703703703701,0,0,0.08703703703703701,106.09814814814811,0)" xlink:href="#ad"/><use transform="matrix(0.08703703703703701,0,0,0.08703703703703701,114.80185185185182,0)" xlink:href="#ap"/></g><g id="N"><use transform="matrix(0.08703703703703701,0,0,0.08703703703703701,0,0)" xlink:href="#aG"/><use transform="matrix(0.08703703703703701,0,0,0.08703703703703701,20.888888888888882,0)" xlink:href="#av"/><use transform="matrix(0.08703703703703701,0,0,0.08703703703703701,38.29629629629628,0)" xlink:href="#ay"/><use transform="matrix(0.08703703703703701,0,0,0.08703703703703701,46.999999999999986,0)" xlink:href="#aE"/><use transform="matrix(0.08703703703703701,0,0,0.08703703703703701,53.87592592592591,0)" xlink:href="#an"/><use transform="matrix(0.08703703703703701,0,0,0.08703703703703701,71.28333333333332,0)" xlink:href="#aA"/><use transform="matrix(0.08703703703703701,0,0,0.08703703703703701,88.69074074074072,0)" xlink:href="#ay"/></g><g id="O"><use transform="matrix(0.08703703703703701,0,0,0.08703703703703701,0,0)" xlink:href="#aK"/><use transform="matrix(0.08703703703703701,0,0,0.08703703703703701,20.888888888888882,0)" xlink:href="#aO"/><use transform="matrix(0.08703703703703701,0,0,0.08703703703703701,38.29629629629628,0)" xlink:href="#aO"/><use transform="matrix(0.08703703703703701,0,0,0.08703703703703701,55.703703703703674,0)" xlink:href="#aH"/><use transform="matrix(0.08703703703703701,0,0,0.08703703703703701,73.11111111111109,0)" xlink:href="#aE"/><use transform="matrix(0.08703703703703701,0,0,0.08703703703703701,79.98703703703701,0)" xlink:href="#aA"/><use transform="matrix(0.08703703703703701,0,0,0.08703703703703701,97.39444444444442,0)" xlink:href="#ay"/><use transform="matrix(0.08703703703703701,0,0,0.08703703703703701,106.09814814814811,0)" xlink:href="#aw"/><use transform="matrix(0.08703703703703701,0,0,0.08703703703703701,132.12222222222218,0)" xlink:href="#an"/><use transform="matrix(0.08703703703703701,0,0,0.08703703703703701,149.52962962962957,0)" xlink:href="#aA"/><use transform="matrix(0.08703703703703701,0,0,0.08703703703703701,166.93703703703696,0)" xlink:href="#ay"/><use transform="matrix(0.08703703703703701,0,0,0.08703703703703701,175.64074074074065,0)" xlink:href="#ad"/><use transform="matrix(0.08703703703703701,0,0,0.08703703703703701,184.34444444444435,0)" xlink:href="#ap"/></g><g id="P"><use transform="matrix(0.08703703703703701,0,0,0.08703703703703701,0,0)" xlink:href="#aP"/><use transform="matrix(0.08703703703703701,0,0,0.08703703703703701,20.888888888888882,0)" xlink:href="#an"/><use transform="matrix(0.08703703703703701,0,0,0.08703703703703701,38.29629629629628,0)" xlink:href="#ao"/><use transform="matrix(0.08703703703703701,0,0,0.08703703703703701,48.65370370370369,0)" xlink:href="#aQ"/><use transform="matrix(0.08703703703703701,0,0,0.08703703703703701,64.32037037037034,0)" xlink:href="#aE"/><use transform="matrix(0.08703703703703701,0,0,0.08703703703703701,71.19629629629627,0)" xlink:href="#aX"/><use transform="matrix(0.08703703703703701,0,0,0.08703703703703701,86.86296296296292,0)" xlink:href="#an"/></g><g id="Q"><use transform="matrix(0.08703703703703701,0,0,0.08703703703703701,0,0)" xlink:href="#aP"/><use transform="matrix(0.08703703703703701,0,0,0.08703703703703701,20.888888888888882,0)" xlink:href="#an"/><use transform="matrix(0.08703703703703701,0,0,0.08703703703703701,38.29629629629628,0)" xlink:href="#ao"/><use transform="matrix(0.08703703703703701,0,0,0.08703703703703701,48.65370370370369,0)" xlink:href="#aQ"/><use transform="matrix(0.08703703703703701,0,0,0.08703703703703701,64.32037037037034,0)" xlink:href="#aE"/><use transform="matrix(0.08703703703703701,0,0,0.08703703703703701,71.19629629629627,0)" xlink:href="#aX"/><use transform="matrix(0.08703703703703701,0,0,0.08703703703703701,86.86296296296292,0)" xlink:href="#an"/></g><g id="R"><use transform="matrix(0.08703703703703701,0,0,0.08703703703703701,0,0)" xlink:href="#aG"/><use transform="matrix(0.08703703703703701,0,0,0.08703703703703701,20.888888888888882,0)" xlink:href="#ao"/><use transform="matrix(0.08703703703703701,0,0,0.08703703703703701,31.246296296296286,0)" xlink:href="#aE"/><use transform="matrix(0.08703703703703701,0,0,0.08703703703703701,38.12222222222221,0)" xlink:href="#aX"/><use transform="matrix(0.08703703703703701,0,0,0.08703703703703701,53.788888888888884,0)" xlink:href="#an"/></g><g id="S"><use transform="matrix(0.08703703703703701,0,0,0.08703703703703701,0,0)" xlink:href="#ap"/><use transform="matrix(0.08703703703703701,0,0,0.08703703703703701,22.542592592592584,0)" xlink:href="#av"/><use transform="matrix(0.08703703703703701,0,0,0.08703703703703701,39.94999999999999,0)" xlink:href="#ay"/><use transform="matrix(0.08703703703703701,0,0,0.08703703703703701,48.65370370370369,0)" xlink:href="#an"/></g><g id="T"><use transform="matrix(0.08703703703703701,0,0,0.08703703703703701,0,0)" xlink:href="#aM"/><use transform="matrix(0.08703703703703701,0,0,0.08703703703703701,17.929629629629627,0)" xlink:href="#aE"/><use transform="matrix(0.08703703703703701,0,0,0.08703703703703701,24.805555555555546,0)" xlink:href="#aw"/><use transform="matrix(0.08703703703703701,0,0,0.08703703703703701,50.829629629629615,0)" xlink:href="#an"/></g><path fill="#333" d="M212-179c-10-28-35-45-73-45-59 0-87 40-87 99 0 60 29 101 89 101 43 0 62-24 78-52l27 14C228-24 195 4 139 4 59 4 22-46 18-125c-6-104 99-153 187-111 19 9 31 26 39 46" id="bg"/><g id="U"><use transform="matrix(0.08703703703703701,0,0,0.08703703703703701,0,0)" xlink:href="#bg"/><use transform="matrix(0.08703703703703701,0,0,0.08703703703703701,22.542592592592584,0)" xlink:href="#av"/><use transform="matrix(0.08703703703703701,0,0,0.08703703703703701,39.94999999999999,0)" xlink:href="#aA"/><use transform="matrix(0.08703703703703701,0,0,0.08703703703703701,57.357407407407386,0)" xlink:href="#aX"/><use transform="matrix(0.08703703703703701,0,0,0.08703703703703701,73.02407407407405,0)" xlink:href="#an"/><use transform="matrix(0.08703703703703701,0,0,0.08703703703703701,90.43148148148146,0)" xlink:href="#aY"/><use transform="matrix(0.08703703703703701,0,0,0.08703703703703701,97.30740740740738,0)" xlink:href="#aY"/><use transform="matrix(0.08703703703703701,0,0,0.08703703703703701,104.1833333333333,0)" xlink:href="#an"/><use transform="matrix(0.08703703703703701,0,0,0.08703703703703701,121.59074074074073,0)" xlink:href="#ae"/></g><g id="V"><use transform="matrix(0.08703703703703701,0,0,0.08703703703703701,0,0)" xlink:href="#aP"/><use transform="matrix(0.08703703703703701,0,0,0.08703703703703701,20.888888888888882,0)" xlink:href="#ay"/><use transform="matrix(0.08703703703703701,0,0,0.08703703703703701,29.592592592592585,0)" xlink:href="#av"/><use transform="matrix(0.08703703703703701,0,0,0.08703703703703701,46.999999999999986,0)" xlink:href="#ay"/><use transform="matrix(0.08703703703703701,0,0,0.08703703703703701,55.70370370370369,0)" xlink:href="#aI"/><use transform="matrix(0.08703703703703701,0,0,0.08703703703703701,73.11111111111109,0)" xlink:href="#am"/></g><path fill="#333" d="M230 0l2-204L168 0h-37L68-204 70 0H24v-248h70l56 185 57-185h69V0h-46" id="bh"/><g id="W"><use transform="matrix(0.09320987654320984,0,0,0.09320987654320984,0,0)" xlink:href="#ba"/><use transform="matrix(0.09320987654320984,0,0,0.09320987654320984,24.141358024691346,0)" xlink:href="#aZ"/><use transform="matrix(0.09320987654320984,0,0,0.09320987654320984,46.51172839506171,0)" xlink:href="#aZ"/><use transform="matrix(0.09320987654320984,0,0,0.09320987654320984,68.88209876543206,0)" xlink:href="#aS"/><use transform="matrix(0.09320987654320984,0,0,0.09320987654320984,94.98086419753082,0)" xlink:href="#bb"/><use transform="matrix(0.09320987654320984,0,0,0.09320987654320984,104.30185185185181,0)" xlink:href="#bd"/><use transform="matrix(0.09320987654320984,0,0,0.09320987654320984,128.44320987654316,0)" xlink:href="#aU"/><use transform="matrix(0.09320987654320984,0,0,0.09320987654320984,148.85617283950612,0)" xlink:href="#bh"/><use transform="matrix(0.09320987654320984,0,0,0.09320987654320984,176.72592592592585,0)" xlink:href="#bc"/><use transform="matrix(0.09320987654320984,0,0,0.09320987654320984,199.0962962962962,0)" xlink:href="#bd"/><use transform="matrix(0.09320987654320984,0,0,0.09320987654320984,223.23765432098756,0)" xlink:href="#aU"/><use transform="matrix(0.09320987654320984,0,0,0.09320987654320984,243.6506172839505,0)" xlink:href="#aW"/></g><g id="X"><use transform="matrix(0.08703703703703701,0,0,0.08703703703703701,0,0)" xlink:href="#aK"/><use transform="matrix(0.08703703703703701,0,0,0.08703703703703701,20.888888888888882,0)" xlink:href="#aO"/><use transform="matrix(0.08703703703703701,0,0,0.08703703703703701,38.29629629629628,0)" xlink:href="#aO"/><use transform="matrix(0.08703703703703701,0,0,0.08703703703703701,55.703703703703674,0)" xlink:href="#aH"/><use transform="matrix(0.08703703703703701,0,0,0.08703703703703701,73.11111111111109,0)" xlink:href="#aE"/><use transform="matrix(0.08703703703703701,0,0,0.08703703703703701,79.98703703703701,0)" xlink:href="#aA"/><use transform="matrix(0.08703703703703701,0,0,0.08703703703703701,97.39444444444442,0)" xlink:href="#ay"/><use transform="matrix(0.08703703703703701,0,0,0.08703703703703701,106.09814814814811,0)" xlink:href="#aw"/><use transform="matrix(0.08703703703703701,0,0,0.08703703703703701,132.12222222222218,0)" xlink:href="#an"/><use transform="matrix(0.08703703703703701,0,0,0.08703703703703701,149.52962962962957,0)" xlink:href="#ay"/><use transform="matrix(0.08703703703703701,0,0,0.08703703703703701,158.23333333333326,0)" xlink:href="#ad"/><use transform="matrix(0.08703703703703701,0,0,0.08703703703703701,166.93703703703696,0)" xlink:href="#ap"/></g><g id="Y"><use transform="matrix(0.08703703703703701,0,0,0.08703703703703701,0,0)" xlink:href="#be"/><use transform="matrix(0.08703703703703701,0,0,0.08703703703703701,22.542592592592584,0)" xlink:href="#an"/><use transform="matrix(0.08703703703703701,0,0,0.08703703703703701,39.94999999999999,0)" xlink:href="#aX"/><use transform="matrix(0.08703703703703701,0,0,0.08703703703703701,55.61666666666665,0)" xlink:href="#an"/><use transform="matrix(0.08703703703703701,0,0,0.08703703703703701,73.02407407407405,0)" xlink:href="#aO"/><use transform="matrix(0.08703703703703701,0,0,0.08703703703703701,90.43148148148146,0)" xlink:href="#ay"/><use transform="matrix(0.08703703703703701,0,0,0.08703703703703701,99.13518518518515,0)" xlink:href="#aE"/><use transform="matrix(0.08703703703703701,0,0,0.08703703703703701,106.01111111111108,0)" xlink:href="#aH"/><use transform="matrix(0.08703703703703701,0,0,0.08703703703703701,123.41851851851848,0)" xlink:href="#aA"/><use transform="matrix(0.08703703703703701,0,0,0.08703703703703701,140.82592592592587,0)" xlink:href="#aE"/><use transform="matrix(0.08703703703703701,0,0,0.08703703703703701,147.70185185185179,0)" xlink:href="#am"/><use transform="matrix(0.08703703703703701,0,0,0.08703703703703701,163.36851851851844,0)" xlink:href="#ay"/></g></defs></g></svg>